<svg width="969" height="128" viewBox="0 0 969 128" fill="none" xmlns="http://www.w3.org/2000/svg">
<g clip-path="url(#clip0_7159_44811)">
<path d="M297.284 36.2552C284.198 36.2552 272.336 41.0195 263.894 49.6629C255.677 58.0728 251.154 69.5731 251.154 82.0391C251.154 94.5212 255.677 106.046 263.894 114.504C272.344 123.204 284.207 128 297.284 128C310.297 128 322.136 123.212 330.61 114.504C338.867 106.03 343.414 94.4971 343.414 82.0391C343.414 69.5892 338.867 58.0889 330.61 49.6629C322.144 41.0115 310.306 36.2552 297.284 36.2552ZM324.196 108.476C317.452 115.695 308.141 119.51 297.284 119.51C286.371 119.51 277.076 115.695 270.397 108.476C264.127 101.7 260.675 92.3081 260.675 82.0391C260.675 60.0767 275.732 44.7376 297.292 44.7376C308.165 44.7376 317.468 48.5201 324.204 55.6906C330.57 62.4588 334.079 71.8184 334.079 82.0391C334.071 92.2759 330.562 101.668 324.196 108.476Z" fill="#002E30"></path>
<path d="M236.153 0.0241699H229.997C228.975 0.0241699 228.315 0.684088 228.315 1.70616V125.811C228.315 126.833 228.975 127.493 229.997 127.493H236.153C237.175 127.493 237.835 126.833 237.835 125.811V1.70616C237.835 0.684088 237.175 0.0241699 236.153 0.0241699Z" fill="#002E30"></path>
<path d="M211.945 0.0241699H205.789C204.767 0.0241699 204.107 0.684088 204.107 1.70616V125.811C204.107 126.833 204.767 127.493 205.789 127.493H211.945C212.968 127.493 213.627 126.833 213.627 125.811V1.70616C213.627 0.684088 212.968 0.0241699 211.945 0.0241699Z" fill="#002E30"></path>
<path d="M181.565 6.84064C178.378 6.84064 175.779 9.35959 175.779 12.4499C175.779 15.6932 178.322 18.2363 181.565 18.2363C184.656 18.2363 187.174 15.6449 187.174 12.4499C187.183 9.35959 184.664 6.84064 181.565 6.84064Z" fill="#002E30"></path>
<path d="M165.115 0H158.621C157.502 0 156.625 0.523106 156.271 1.41641L124.273 105.193C123.919 106.247 123.38 106.907 122.856 106.907C122.333 106.907 121.794 106.255 121.44 105.193L88.1061 6.39799C87.9049 5.59321 87.0921 4.96548 86.2632 4.96548H80.7907C79.7928 4.96548 79.1731 5.40006 78.7868 6.37384L45.976 105.176C45.5414 106.263 44.962 106.907 44.4228 106.907C44.4067 106.907 44.3986 106.907 44.3825 106.907C43.8755 106.875 43.4168 106.255 43.1351 105.201L11.0245 1.44055C10.6221 0.442628 9.96215 0.0482867 8.68255 0.0482867H2.01094C1.35102 0.0482867 0.827913 0.28972 0.538193 0.724301C0.232377 1.18302 0.22433 1.82685 0.522098 2.50286L39.6504 126.093C39.9965 126.962 40.8737 127.485 41.9923 127.485H46.0967C47.2153 127.485 48.0925 126.962 48.4386 126.077L82.1186 26.5818C82.4727 25.5839 83.028 24.9964 83.6235 24.9964C84.1788 25.0125 84.6697 25.608 84.9514 26.5818L118.808 126.101C119.154 126.97 120.032 127.493 121.15 127.493H125.255C126.285 127.493 127.412 127.05 127.605 126.077L166.596 2.48677C166.894 1.78661 166.894 1.14279 166.588 0.676014C166.298 0.241433 165.775 0 165.115 0Z" fill="#002E30"></path>
<path d="M184.478 36.2633H178.322C177.3 36.2633 176.64 36.9232 176.64 37.9453V125.811C176.64 126.833 177.3 127.493 178.322 127.493H184.478C185.5 127.493 186.16 126.833 186.16 125.811V37.9453C186.152 36.9232 185.492 36.2633 184.478 36.2633Z" fill="#002E30"></path>
<path d="M870.81 119.429C870.721 118.914 870.552 118.592 870.262 118.423C869.868 118.19 869.377 118.286 868.701 118.504C865.949 119.365 864.114 119.518 861.273 119.518C852.179 119.518 852.179 110.295 852.179 90.0788V45.7919C852.179 45.1078 852.557 44.7376 853.233 44.7376H869.128C870.15 44.7376 870.81 44.0777 870.81 43.0556V37.9292C870.81 36.9071 870.15 36.2472 869.128 36.2472H853.233C852.549 36.2472 852.179 35.869 852.179 35.193V10.7599C852.179 10.1644 851.962 9.6493 851.592 9.35153C851.286 9.10205 850.883 9.00548 850.465 9.08595L844.107 9.77002C843.149 9.96316 842.658 10.5828 842.658 11.613V35.193C842.658 35.877 842.288 36.2472 841.604 36.2472H833.057C832.035 36.2472 831.375 36.9071 831.375 37.9292V43.0556C831.375 44.0777 832.035 44.7376 833.057 44.7376H841.604C842.288 44.7376 842.658 45.1159 842.658 45.7919V90.0708C842.658 91.0768 842.658 92.0747 842.658 93.0646C842.634 107.341 842.61 118.616 848.219 124.226C850.755 126.761 854.296 127.992 859.044 127.992C864.299 127.992 868.757 126.761 870.858 125.537C871.59 124.99 871.872 124.201 871.655 123.34L870.81 119.429Z" fill="#002E30"></path>
<path d="M818.595 0.0241699H812.439C811.417 0.0241699 810.757 0.684088 810.757 1.70616V125.811C810.757 126.833 811.417 127.493 812.439 127.493H818.595C819.617 127.493 820.277 126.833 820.277 125.811V1.70616C820.277 0.684088 819.617 0.0241699 818.595 0.0241699Z" fill="#002E30"></path>
<path d="M955.778 45.4539C949.911 39.3456 941.582 36.2553 931.023 36.2553C915.266 36.2553 902.51 45.631 897.786 51.9243C897.432 52.3509 897.158 52.4474 897.053 52.4152C896.933 52.367 896.804 52.1014 896.804 51.6105V1.70616C896.804 0.684088 896.144 0.0241699 895.122 0.0241699H888.965C887.943 0.0241699 887.283 0.684088 887.283 1.70616V125.811C887.283 126.833 887.943 127.493 888.965 127.493H895.122C896.144 127.493 896.804 126.833 896.804 125.811V65.517C901.48 53.6707 915.596 44.7377 929.663 44.7377C947.996 44.7377 956.535 55.9885 956.535 80.156V125.803C956.535 126.825 957.194 127.485 958.217 127.485H964.373C965.395 127.485 966.055 126.825 966.055 125.803V78.6188C966.039 63.6982 962.587 52.536 955.778 45.4539Z" fill="#002E30"></path>
<path d="M474.73 36.7703H468.235C467.406 36.7703 466.601 37.398 466.4 38.1867L442.635 112.025C442.458 112.492 442.225 112.782 442.024 112.782C441.806 112.782 441.541 112.484 441.347 112.025L415.699 37.9855C415.273 36.9071 414.532 36.7623 413.872 36.7623H407.885C406.831 36.7623 406.211 37.1808 406.05 38.0016L380.587 112.009C380.386 112.484 380.096 112.782 379.838 112.782C379.83 112.782 379.814 112.782 379.806 112.782C379.597 112.766 379.404 112.492 379.283 112.033L355.325 38.1304C354.882 37.2371 354.254 36.7623 353.506 36.7623H347.011C346.279 36.7623 345.917 37.0681 345.748 37.3176C345.498 37.6878 345.482 38.1787 345.692 38.7098L375.428 126.205C375.694 126.769 375.983 127.485 377.44 127.485H382.397C383.041 127.485 383.959 127.356 384.401 126.246L410.396 51.8599C410.508 51.4656 410.694 51.2 410.871 51.1919H410.879C411.048 51.1919 411.321 51.4253 411.514 51.8841L437.662 126.213C437.895 126.777 438.225 127.493 439.674 127.493H444.631C445.283 127.493 446.192 127.364 446.635 126.254L476.05 38.6857C476.178 38.0419 476.106 37.5429 475.84 37.2129C475.607 36.9152 475.237 36.7703 474.73 36.7703Z" fill="#002E30"></path>
<path d="M644.248 0.692127C643.967 0.257547 643.443 0.0161133 642.776 0.0161133H636.281C635.162 0.0161133 634.285 0.539219 633.931 1.43252L601.941 105.193C601.587 106.247 601.048 106.907 600.525 106.907C600.002 106.907 599.462 106.255 599.108 105.193L565.782 6.39801C565.581 5.59323 564.768 4.9655 563.939 4.9655H558.467C557.469 4.9655 556.849 5.40008 556.463 6.37386L523.652 105.177C523.226 106.247 522.63 106.907 522.099 106.907C522.083 106.907 522.075 106.907 522.059 106.907C521.552 106.875 521.093 106.255 520.811 105.201L488.685 1.44057C488.282 0.442646 487.622 0.0483044 486.343 0.0483044H479.679C479.019 0.0483044 478.496 0.289738 478.206 0.724318C477.901 1.19109 477.893 1.83491 478.182 2.51093L517.327 126.101C517.568 126.978 518.55 127.493 519.669 127.493H523.773C524.892 127.493 525.769 126.97 526.123 126.085L559.803 26.5899C560.157 25.592 560.712 25.0045 561.308 25.0045C561.863 25.0206 562.354 25.6161 562.636 26.5899L596.493 126.109C596.774 126.986 597.716 127.501 598.835 127.501H602.939C603.969 127.501 605.096 127.058 605.289 126.085L644.264 2.50288C644.562 1.80272 644.562 1.1589 644.248 0.692127Z" fill="#002E30"></path>
<path d="M766.003 36.2552C752.708 36.2552 738.448 41.8002 732.991 45.5504L732.871 45.639C732.283 46.0735 731.776 46.4518 732.372 47.4417L733.917 51.7231C734.15 52.3106 734.456 52.6566 734.85 52.7854C735.212 52.9061 735.631 52.8256 736.074 52.5601C741.578 49.3651 754.68 44.7376 763.951 44.7376C771.106 44.7376 776.111 46.0896 779.701 48.9868C784.312 52.713 786.549 58.9983 786.549 68.1889C786.549 69.1063 786.284 69.4202 785.495 69.4202C766.39 69.5087 751.557 72.1484 741.401 77.2507C730.408 82.7795 724.839 91.2377 724.839 102.384C724.839 109.434 727.342 115.783 731.881 120.258C737.015 125.32 744.677 128 754.044 128C764.877 128 779.306 122.866 785.551 116.797C785.801 116.548 786.082 116.435 786.268 116.508C786.453 116.58 786.557 116.862 786.557 117.256V125.803C786.557 126.825 787.217 127.485 788.239 127.485H794.227C795.249 127.485 795.909 126.825 795.909 125.803V76.3976C795.893 59.457 795.893 36.2552 766.003 36.2552ZM786.549 106.657C786.549 107.148 786.549 107.526 785.978 107.961C775.773 116.725 763.758 119.856 755.919 119.856C742.922 119.856 734.52 112.862 734.52 102.046C734.52 92.8955 740.363 86.1274 751.879 81.9506C762.647 78.0474 776.103 77.2265 785.495 77.2265C786.179 77.2265 786.549 77.6048 786.549 78.2808V106.657Z" fill="#002E30"></path>
<path d="M677.003 36.2552C664.979 36.2552 654.115 41.0195 646.405 49.6709C638.929 58.0647 634.808 69.557 634.808 82.0391C634.808 95.1731 638.438 106.416 645.311 114.552C652.739 123.348 663.7 128 677.003 128C686.242 128 694.418 125.61 701.307 120.894C707.367 116.741 712.075 110.971 714.908 104.211C715.101 103.72 715.109 103.301 714.924 102.963C714.715 102.593 714.288 102.352 713.644 102.247L707.858 101.394C707.029 101.185 706.2 101.595 705.806 102.4C703.601 106.416 694.982 119.51 676.842 119.51C665.43 119.51 656.344 114.987 650.558 106.44C645.963 99.6476 644.329 91.7206 644.329 86.9965C644.329 86.2239 644.611 85.9423 645.383 85.9423H715.648C716.67 85.9423 717.33 85.2823 717.33 84.2603V81.524C717.33 70.2571 714.111 59.288 708.486 51.4253C701.388 41.5024 690.499 36.2552 677.003 36.2552ZM706.409 77.9669H645.544C644.86 77.9669 644.49 77.5967 644.49 76.9127C644.667 63.8994 655.121 44.5606 677.003 44.3996H677.293C685.791 44.3996 692.736 47.0151 697.935 52.1818C704.961 59.1592 707.464 69.6214 707.464 77.0817C707.464 77.6289 707.061 77.9669 706.409 77.9669Z" fill="#002E30"></path>
</g>
<defs>
<clipPath id="clip0_7159_44811">
<rect width="965.734" height="128" fill="#002E30" transform="translate(0.304932)"></rect>
</clipPath>
</defs>
</svg>